<svg width="22" height="20" xmlns="http://www.w3.org/2000/svg"><path d="M10.817.94a1.352 1.352 0 010 1.91L5.413 8.254c-.264.262-.61.395-.956.395s-.692-.133-.954-.398L.801 5.55a1.352 1.352 0 011.91-1.91l1.746 1.747L8.904.937a1.355 1.355 0 011.913.003zm0 10.808a1.352 1.352 0 010 1.91l-5.404 5.404a1.357 1.357 0 01-1.91 0L.801 16.36a1.352 1.352 0 011.91-1.91l1.746 1.745 4.447-4.45a1.355 1.355 0 011.913.003zm9.852-8.503a1.351 1.351 0 010 2.702h-5.404a1.351 1.351 0 010-2.702h5.404zm0 10.808a1.351 1.351 0 010 2.702h-5.404a1.351 1.351 0 010-2.702h5.404z" fill="#FFC200" fill-rule="evenodd"/></svg>